# xmcd
#
# Track frame offsets:
#	150
#	18600
#	37275
#	58725
#	77550
#	97500
#	110925
#	128325
#	144600
#	161475
#	178950
#	196350
#	213675
#	234750
#	251250
#	269250
#	286200
#	305175
#
# Disc length: 4089 seconds
#
# Revision: 3
# Processed by: cddbd v1.5.2PL0 Copyright (c) Steve Scherf et al.
# Submitted via: audiograbber 1.83.01
#
DISCID=040ff712
DTITLE=CHK0202 Current Hits Karaoke - 0202 (CHK)
DYEAR=2010
DGENRE=Karaoke
TTITLE0=Alicia Keys  - No One (CHK)
TTITLE1=Leona Lewis - Bleeding Love (CHK)
TTITLE2=Usher and Young Jeezy - Love In This Club (CHK)
TTITLE3=Jordan Sparks and Chris Brown - No Air (CHK)
TTITLE4=Rihanna and Jay Z - Umbrella (CHK)
TTITLE5=Colbie Caillat  - Bubbly (CHK)
TTITLE6=Flo Rida and T Pain - Low (CHK)
TTITLE7=Graham Colton  - Best Days (The Rest Of Our Lives) (CHK)
TTITLE8=Fergie - Clumsy (CHK)
TTITLE9=Sara Bareilles  - Love Song (CHK)
TTITLE10=Duffy - Mercy (CHK)
TTITLE11=Beyonce - Irreplaceable (CHK)
TTITLE12=Rihanna - Don't Stop The Music (CHK)
TTITLE13=David Cook  - The Time Of My Life (CHK)
TTITLE14=Maroon 5 - Won't Go Home Without You (CHK)
TTITLE15=Avril Lavigne  - Girlfriend (CHK)
TTITLE16=Colbie Caillat  - Realize (CHK)
TTITLE17=Data - Data
EXTD=
EXTT0=
EXTT1=
EXTT2=
EXTT3=
EXTT4=
EXTT5=
EXTT6=
EXTT7=
EXTT8=
EXTT9=
EXTT10=
EXTT11=
EXTT12=
EXTT13=
EXTT14=
EXTT15=
EXTT16=
EXTT17=
PLAYORDER=
